<?xml version="1.0" encoding="utf-8"?><svg xmlns="http://www.w3.org/2000/svg" width="138.813" height="21.906" viewBox="0 0 138.813 21.906"><defs><style>.icls-1{fill:#fff;fill-rule:evenodd}</style></defs><path id="iHOMEFOR" class="icls-1" d="M296.639 36.185h-4.394v8.643h-8.57v-8.643h-4.394v21.328h4.394v-9.14h8.57v9.141h4.394V36.185zM318 46.38a12.77 12.77 0 00-1.136-5.53 8.447 8.447 0 00-3.208-3.677 9.4 9.4 0 00-9.477 0 8.453 8.453 0 00-3.208 3.677 12.806 12.806 0 00-1.135 5.544v1.056a12.491 12.491 0 001.157 5.442 8.466 8.466 0 003.223 3.64 9.413 9.413 0 009.484-.015 8.38 8.38 0 003.186-3.662A12.877 12.877 0 00318 47.333v-.953zm-4.453 1.025a9.036 9.036 0 01-1.2 5.061 4.206 4.206 0 01-6.855-.066 9.085 9.085 0 01-1.2-5.068v-1.04a8.865 8.865 0 011.216-5.046 4.242 4.242 0 016.84.022 8.974 8.974 0 011.2 5.1v1.04zm7.646-11.221v21.329h4.395v-5.83l-.44-10.049 5.742 15.879h3.018l5.757-15.893-.44 10.063v5.83h4.41V36.185h-5.775l-5.449 15.469-5.479-15.469h-5.742zm39.107 8.644h-8.437v-5.083h9.873v-3.56h-14.267v21.328h14.3v-3.53h-9.9V48.27h8.431v-3.442zm16.875.425h-8.437v-5.508h9.492v-3.56h-13.886v21.328h4.395V48.8h8.437v-3.547zM398.3 46.38a12.769 12.769 0 00-1.135-5.53 8.453 8.453 0 00-3.208-3.677 9.4 9.4 0 00-9.477 0 8.447 8.447 0 00-3.208 3.677 12.806 12.806 0 00-1.136 5.544v1.056a12.505 12.505 0 001.158 5.442 8.464 8.464 0 003.222 3.64 9.415 9.415 0 009.484-.015 8.38 8.38 0 003.186-3.662 12.877 12.877 0 001.113-5.522v-.953zm-4.453 1.025a9.028 9.028 0 01-1.2 5.061 4.206 4.206 0 01-6.855-.066 9.085 9.085 0 01-1.2-5.068v-1.04a8.874 8.874 0 011.215-5.046 4.243 4.243 0 016.841.022 8.974 8.974 0 011.2 5.1v1.04zm19.541 10.107h4.712v-.2l-4.614-8.716a6.445 6.445 0 002.864-2.322 6.56 6.56 0 00.945-3.64 5.815 5.815 0 00-2.051-4.761 8.962 8.962 0 00-5.83-1.685h-7.925v21.325h4.394v-7.807h3.5zm-7.5-17.768h3.531a3.561 3.561 0 012.629.864 3.224 3.224 0 01.857 2.373A3.012 3.012 0 01412 45.3a3.631 3.631 0 01-2.564.842h-3.545v-6.4z" transform="translate(-279.281 -35.906)"/></svg>